<?xml version="1.0" encoding="utf-8"?>
<!-- Generator: Adobe Illustrator 16.0.0, SVG Export Plug-In . SVG Version: 6.00 Build 0)  -->
<!DOCTYPE svg PUBLIC "-//W3C//DTD SVG 1.1//EN" "http://www.w3.org/Graphics/SVG/1.1/DTD/svg11.dtd">
<svg version="1.1" id="Capa_1" xmlns="http://www.w3.org/2000/svg" xmlns:xlink="http://www.w3.org/1999/xlink" x="0px" y="0px"
	 width="50px" height="50px" viewBox="0 0 50 50" enable-background="new 0 0 50 50" xml:space="preserve">
<g id="accessibility">
	<g>
		<rect x="11.641" y="24.861" width="27.753" height="2.5"/>
	</g>
	<g>
		<rect x="23.97" y="18.352" width="2.5" height="19.593"/>
	</g>
	<g>
		<rect x="29.719" y="34.489" transform="matrix(-0.7071 0.7071 -0.7071 -0.7071 82.5892 50.3715)" width="2.286" height="15.604"/>
	</g>
	<g>
		<rect x="18.168" y="34.75" transform="matrix(-0.7071 -0.7071 0.7071 -0.7071 3.2129 86.1678)" width="2.569" height="15.337"/>
	</g>
	<g>
		<path d="M25.241,17.835c-4.412,0-8.002-3.589-8.002-8c0-4.412,3.59-8.001,8.002-8.001c4.41,0,7.998,3.589,7.998,8.001
			C33.239,14.246,29.651,17.835,25.241,17.835z M25.241,3.833c-3.31,0-6.002,2.692-6.002,6.001c0,3.309,2.692,6,6.002,6
			c3.308,0,5.998-2.691,5.998-6C31.239,6.526,28.549,3.833,25.241,3.833z"/>
	</g>
</g>
</svg>
