<?xml version="1.0" encoding="utf-8"?>
<!-- Generator: Adobe Illustrator 16.0.0, SVG Export Plug-In . SVG Version: 6.00 Build 0)  -->
<!DOCTYPE svg PUBLIC "-//W3C//DTD SVG 1.1//EN" "http://www.w3.org/Graphics/SVG/1.1/DTD/svg11.dtd">
<svg version="1.1" id="Capa_1" xmlns="http://www.w3.org/2000/svg" xmlns:xlink="http://www.w3.org/1999/xlink" x="0px" y="0px"
	 width="129.109px" height="101.5px" viewBox="0 0 129.109 101.5" enable-background="new 0 0 129.109 101.5" xml:space="preserve">
<g>
	<path d="M114.719,74.784v4.897c0,3.788-0.914,6.765-2.743,8.929c-1.829,2.166-4.333,3.248-7.51,3.248
		c-3.557,0-6.304-1.338-8.242-4.012c-1.938-2.676-2.907-6.49-2.907-11.445c0-4.998,0.965-8.791,2.896-11.379
		c1.932-2.586,4.755-3.881,8.472-3.881c4.168,0,7.185,2.225,9.051,6.668l-6.318,2.602c-0.524-0.932-1.013-1.613-1.465-2.043
		s-1.071-0.645-1.858-0.645c-1.341,0-2.292,0.703-2.853,2.109c-0.562,1.406-0.842,3.684-0.842,6.832
		c0,2.929,0.317,5.082,0.951,6.459s1.644,2.066,3.028,2.066c2.215,0,3.358-1.582,3.432-4.743h-3.082v-5.663H114.719z"/>
</g>
<g>
	<path d="M1.498,50c-0.444,0-0.873-0.487-1.188-1.397c-0.315-0.89-0.493-2.113-0.493-3.389l0.003-40.417C-0.181,2.149,0.569,0,1.5,0
		h46.82c0.447,0,0.87,0.506,1.189,1.397C49.822,2.306,50,3.521,50,4.788v40.426C50,47.853,49.246,50,48.32,50H1.498z M3.179,9.591
		v30.837l43.458-0.018l0.006-30.828L3.179,9.591z"/>
</g>
<g>
	<path d="M18.025,39.084v-6.807c2.102,1.226,3.866,1.839,5.297,1.839c0.832,0,1.488-0.23,1.969-0.689
		c0.482-0.46,0.722-1.068,0.722-1.827c0-0.584-0.192-1.131-0.578-1.642c-0.388-0.511-1.055-1.13-2.003-1.86
		c-2.292-1.751-3.95-3.382-4.98-4.892c-1.029-1.511-1.543-3.192-1.543-5.045c0-2.524,0.795-4.581,2.387-6.172
		c1.59-1.591,3.646-2.387,6.173-2.387c1.867,0,3.719,0.401,5.557,1.204v6.544c-1.969-1.08-3.565-1.619-4.791-1.619
		c-0.817,0-1.464,0.2-1.938,0.602c-0.476,0.401-0.711,0.952-0.711,1.653c0,1.225,1.101,2.604,3.304,4.136
		c1.315,0.905,2.646,2.178,3.995,3.818c1.35,1.642,2.024,3.542,2.024,5.702c0,2.522-0.884,4.613-2.647,6.271
		c-1.768,1.656-4.008,2.484-6.722,2.484C21.687,40.397,19.849,39.96,18.025,39.084z"/>
</g>
<g>
	<path d="M80.607,101.5c-0.444,0-0.873-0.487-1.189-1.397c-0.314-0.89-0.492-2.113-0.492-3.389l0.002-40.417
		c0-2.647,0.751-4.797,1.682-4.797h46.82c0.447,0,0.87,0.506,1.189,1.397c0.313,0.909,0.49,2.124,0.49,3.39v40.427
		c0,2.639-0.754,4.786-1.68,4.786H80.607z M82.289,61.091v30.837l43.457-0.018l0.006-30.828L82.289,61.091z"/>
</g>
<path d="M79.791,71.646c-0.098-0.424-0.223-0.631-0.376-0.631H63.689c-0.153,0-0.279,0.21-0.377,0.631
	c-0.099,0.422-0.147,0.958-0.147,1.614v4.492c0,0.655,0.049,1.194,0.147,1.614C63.41,79.788,63.536,80,63.689,80h15.726
	c0.153,0,0.278-0.212,0.376-0.633c0.099-0.422,0.147-0.959,0.147-1.614v-4.492C79.938,72.604,79.89,72.068,79.791,71.646z"/>
<path d="M71.342,31.116c-0.141-0.471-0.32-0.702-0.54-0.702h-22.55c-0.22,0-0.4,0.231-0.541,0.702
	C47.57,31.584,47.5,32.18,47.5,32.907v4.994c0,0.728,0.07,1.326,0.211,1.794s0.321,0.702,0.541,0.702h22.55
	c0.22,0,0.399-0.234,0.54-0.702c0.141-0.469,0.211-1.066,0.211-1.794v-4.994C71.553,32.18,71.483,31.584,71.342,31.116z"/>
<path d="M63.947,31.212c-0.386,0.256-0.576,0.585-0.576,0.985v41.127c0,0.4,0.192,0.729,0.576,0.985
	c0.384,0.257,0.872,0.386,1.47,0.386h4.091c0.595,0,1.086-0.129,1.469-0.386c0.384-0.256,0.575-0.585,0.575-0.985V32.197
	c0-0.4-0.191-0.729-0.575-0.985c-0.383-0.257-0.874-0.386-1.469-0.386h-4.091C64.819,30.826,64.331,30.953,63.947,31.212z"/>
</svg>
