<?xml version="1.0" encoding="utf-8"?>
<!-- Generator: Adobe Illustrator 16.0.0, SVG Export Plug-In . SVG Version: 6.00 Build 0)  -->
<!DOCTYPE svg PUBLIC "-//W3C//DTD SVG 1.1//EN" "http://www.w3.org/Graphics/SVG/1.1/DTD/svg11.dtd">
<svg version="1.1" id="Capa_1" xmlns="http://www.w3.org/2000/svg" xmlns:xlink="http://www.w3.org/1999/xlink" x="0px" y="0px"
	 width="129.109px" height="101.5px" viewBox="0 0 129.109 101.5" enable-background="new 0 0 129.109 101.5" xml:space="preserve">
<g>
	<path d="M121.368,38.089c-4.301,0-7.816-3.512-7.816-7.818V18.909c0-8.22-6.693-14.909-14.93-14.909h-3.765
		c-1.968,0-3.551,1.59-3.551,3.548c0,1.968,1.583,3.559,3.551,3.559h3.765c4.333,0,7.837,3.496,7.837,7.802v11.362
		c0,4.545,2.033,8.622,5.251,11.366c-3.218,2.758-5.251,6.813-5.251,11.357v11.37c0,4.29-3.504,7.813-7.837,7.813h-3.765
		c-1.968,0-3.551,1.589-3.551,3.531c0,1.982,1.583,3.564,3.551,3.564h3.765c8.236,0,14.93-6.687,14.93-14.909v-11.37
		c0-4.303,3.516-7.807,7.816-7.807c1.957,0,3.551-1.594,3.551-3.551C124.919,39.67,123.325,38.089,121.368,38.089z"/>
	<path d="M22.659,30.271V18.909c0-4.306,3.506-7.802,7.807-7.802h3.787c1.971,0,3.557-1.59,3.557-3.559
		C37.81,5.59,36.224,4,34.253,4h-3.787c-8.224,0-14.91,6.689-14.91,14.909v11.362c0,4.306-3.504,7.818-7.806,7.818
		c-1.971,0-3.56,1.581-3.56,3.548c0,1.957,1.589,3.551,3.56,3.551c4.301,0,7.806,3.504,7.806,7.807v11.37
		c0,8.223,6.686,14.909,14.91,14.909h3.787c1.971,0,3.557-1.582,3.557-3.564c0-1.942-1.586-3.531-3.557-3.531h-3.787
		c-4.301,0-7.807-3.523-7.807-7.813v-11.37c0-4.544-2.042-8.6-5.266-11.357C20.616,38.893,22.659,34.816,22.659,30.271z"/>
	<path d="M83.483,57.035c-0.916,0-1.84,0.371-2.502,1.033c-0.66,0.66-1.032,1.585-1.032,2.494c0,0.961,0.372,1.856,1.032,2.502
		c0.662,0.685,1.586,1.055,2.502,1.055c0.954,0,1.857-0.37,2.503-1.055c0.685-0.646,1.055-1.541,1.055-2.502
		c0-0.909-0.37-1.834-1.055-2.494C85.341,57.406,84.437,57.035,83.483,57.035z"/>
	<path d="M64.554,57.035c-0.936,0-1.857,0.371-2.517,1.033c-0.663,0.66-1.031,1.585-1.031,2.494c0,0.961,0.368,1.856,1.031,2.502
		c0.66,0.685,1.582,1.055,2.517,1.055c0.928,0,1.86-0.37,2.516-1.055c0.665-0.646,1.046-1.541,1.046-2.502
		c0-0.909-0.381-1.834-1.046-2.494C66.415,57.406,65.482,57.035,64.554,57.035z"/>
	<path d="M45.615,57.035c-0.93,0-1.843,0.371-2.508,1.033c-0.661,0.66-1.037,1.585-1.037,2.494c0,0.961,0.376,1.856,1.037,2.502
		c0.665,0.685,1.582,1.055,2.508,1.055c0.936,0,1.861-0.37,2.517-1.055c0.664-0.646,1.042-1.541,1.042-2.502
		c0-0.909-0.378-1.834-1.042-2.494C47.476,57.406,46.551,57.035,45.615,57.035z"/>
</g>
<g id="XMLID_427_">
	<g id="XMLID_623_">
		<polygon points="71.931,83.594 71.931,79.273 62.651,79.273 62.651,93.049 65.569,93.049 65.569,86.654 74.557,100 76.612,96.938 
			67.625,83.594 		"/>
	</g>
</g>
</svg>
