<?xml version="1.0" encoding="utf-8"?>
<!-- Generator: Adobe Illustrator 16.0.0, SVG Export Plug-In . SVG Version: 6.00 Build 0)  -->
<!DOCTYPE svg PUBLIC "-//W3C//DTD SVG 1.1//EN" "http://www.w3.org/Graphics/SVG/1.1/DTD/svg11.dtd">
<svg version="1.1" id="Capa_1" xmlns="http://www.w3.org/2000/svg" xmlns:xlink="http://www.w3.org/1999/xlink" x="0px" y="0px"
	 width="119.75px" height="50px" viewBox="0 0 119.75 50" enable-background="new 0 0 119.75 50" xml:space="preserve">
<g id="XMLID_427_">
	<g id="XMLID_623_">
		<polygon points="18.727,16.458 18.727,9.666 4.165,9.666 4.165,31.293 8.738,31.293 8.738,21.256 22.852,42.219 26.085,37.417 
			11.97,16.458 		"/>
	</g>
</g>
<g>
	<path d="M48.89,25.766c0,5.545-0.854,9.732-2.561,12.563s-4.221,4.246-7.541,4.246h-3.434V8.87h3.551
		c3.219,0,5.688,1.466,7.406,4.399C48.029,16.202,48.89,20.367,48.89,25.766z M46.874,25.723c0-4.337-0.664-7.641-1.992-9.911
		c-1.328-2.27-3.266-3.405-5.813-3.405H37.37v26.632h1.488c2.758,0,4.783-1.084,6.076-3.253
		C46.228,33.617,46.874,30.264,46.874,25.723z"/>
	<path d="M67.43,26.158h-6.388v16.416h-2.016V8.87h8.402v3.537h-6.387v10.238h6.387v3.513H67.43z"/>
	<path d="M94.042,43.514L80.025,16.947v25.627H78.01V7.931l14.016,26.5V8.87h2.017V43.514z"/>
	<path d="M114.468,42.574h-9.163V8.87h9.163v3.537h-7.147v10.238h7.147v3.514h-7.147v12.88h7.147V42.574z"/>
</g>
</svg>
