<?xml version="1.0" encoding="utf-8"?>
<!-- Generator: Adobe Illustrator 16.0.0, SVG Export Plug-In . SVG Version: 6.00 Build 0)  -->
<!DOCTYPE svg PUBLIC "-//W3C//DTD SVG 1.1//EN" "http://www.w3.org/Graphics/SVG/1.1/DTD/svg11.dtd">
<svg version="1.1" id="Capa_1" xmlns="http://www.w3.org/2000/svg" xmlns:xlink="http://www.w3.org/1999/xlink" x="0px" y="0px"
	 width="50px" height="50px" viewBox="0 0 50 50" enable-background="new 0 0 50 50" xml:space="preserve">
<g>
	<path d="M35.018,23.284v4.897c0,3.788-0.914,6.765-2.743,8.929c-1.829,2.166-4.333,3.248-7.51,3.248
		c-3.557,0-6.304-1.338-8.242-4.012c-1.938-2.676-2.908-6.49-2.908-11.445c0-4.998,0.965-8.792,2.897-11.379
		c1.931-2.587,4.755-3.881,8.472-3.881c4.168,0,7.185,2.224,9.051,6.668l-6.318,2.602c-0.524-0.933-1.013-1.613-1.465-2.044
		c-0.452-0.43-1.071-0.645-1.858-0.645c-1.341,0-2.292,0.703-2.853,2.109c-0.562,1.407-0.842,3.684-0.842,6.832
		c0,2.929,0.317,5.083,0.951,6.459c0.634,1.377,1.643,2.066,3.028,2.066c2.215,0,3.359-1.582,3.432-4.743h-3.083v-5.663H35.018z"/>
</g>
<g>
	<path d="M1.498,50c-0.444,0-0.873-0.487-1.188-1.397c-0.315-0.89-0.493-2.113-0.493-3.389l0.003-40.417C-0.181,2.149,0.569,0,1.5,0
		h46.82c0.447,0,0.87,0.506,1.189,1.397C49.822,2.306,50,3.521,50,4.788v40.426C50,47.853,49.246,50,48.32,50H1.498z M3.179,9.591
		v30.837l43.458-0.018l0.006-30.828L3.179,9.591z"/>
</g>
</svg>
