<?xml version="1.0" encoding="utf-8"?>
<!-- Generator: Adobe Illustrator 16.0.0, SVG Export Plug-In . SVG Version: 6.00 Build 0)  -->
<!DOCTYPE svg PUBLIC "-//W3C//DTD SVG 1.1//EN" "http://www.w3.org/Graphics/SVG/1.1/DTD/svg11.dtd">
<svg version="1.1" id="Capa_1" xmlns="http://www.w3.org/2000/svg" xmlns:xlink="http://www.w3.org/1999/xlink" x="0px" y="0px"
	 width="129.109px" height="101.5px" viewBox="0 0 129.109 101.5" enable-background="new 0 0 129.109 101.5" xml:space="preserve">
<g>
	<g>
		<rect x="40.786" y="11.608" width="4.264" height="4.261"/>
		<rect x="40.786" y="48.608" width="4.264" height="4.264"/>
		<rect x="40.786" y="85.633" width="4.264" height="4.258"/>
		<path d="M113.108,11.608h-10.635V2.881c0-1.271-0.857-2.132-2.125-2.132H30.152c-1.268,0-2.126,0.861-2.126,2.132v8.727H17.391
			c-1.274,0-2.132,0.839-2.132,2.132v74.019c0,1.274,0.858,2.132,2.132,2.132h10.634v8.727c0,1.274,0.858,2.133,2.126,2.133h70.197
			c1.268,0,2.125-0.858,2.125-2.133V76.695c0-1.268-0.857-2.125-2.125-2.125H30.152c-1.268,0-2.126,0.857-2.126,2.125v8.733h-8.502
			V15.85h8.502v8.932c0,1.271,0.858,2.132,2.126,2.132h70.197c1.268,0,2.125-1.066,2.125-2.132V15.85h8.503v32.758h-8.503v-8.727
			c0-1.271-0.857-2.132-2.125-2.132H30.152c-1.268,0-2.126,0.861-2.126,2.132v21.698c0,1.269,0.858,2.132,2.126,2.132h70.197
			c1.268,0,2.125-0.863,2.125-1.908v-8.931h10.635c1.274,0,2.132-0.861,2.132-2.132v-37
			C115.24,12.447,114.383,11.608,113.108,11.608z M75.885,96.466V78.809h9.136v17.657H75.885z M98.216,96.466h-8.931V78.809h8.931
			V96.466z M32.283,78.809h39.356v17.657H32.283V78.809z M85.02,5.01v17.661h-9.136V5.01H85.02z M32.283,5.01h39.356v17.661H32.283
			V5.01z M98.216,22.671h-8.931V5.01h8.931V22.671z M85.02,41.809v17.658h-9.136V41.809H85.02z M32.283,41.809h39.356v17.658H32.283
			V41.809z M98.216,59.467h-8.931V41.809h8.931V59.467z"/>
	</g>
</g>
</svg>
