<?xml version="1.0" encoding="utf-8"?>
<!-- Generator: Adobe Illustrator 16.0.0, SVG Export Plug-In . SVG Version: 6.00 Build 0)  -->
<!DOCTYPE svg PUBLIC "-//W3C//DTD SVG 1.1//EN" "http://www.w3.org/Graphics/SVG/1.1/DTD/svg11.dtd">
<svg version="1.1" id="Capa_1" xmlns="http://www.w3.org/2000/svg" xmlns:xlink="http://www.w3.org/1999/xlink" x="0px" y="0px"
	 width="50px" height="50px" viewBox="0 0 50 50" enable-background="new 0 0 50 50" xml:space="preserve">
<g>
	<path d="M18.117,39.084v-6.807c2.102,1.226,3.866,1.839,5.297,1.839c0.832,0,1.488-0.23,1.969-0.689
		c0.482-0.46,0.721-1.068,0.721-1.827c0-0.584-0.192-1.131-0.578-1.642c-0.387-0.511-1.055-1.13-2.003-1.86
		c-2.292-1.751-3.95-3.382-4.979-4.892C17.514,21.695,17,20.014,17,18.161c0-2.524,0.795-4.581,2.386-6.172
		c1.59-1.591,3.647-2.387,6.173-2.387c1.867,0,3.719,0.401,5.557,1.204v6.544c-1.969-1.08-3.565-1.619-4.791-1.619
		c-0.817,0-1.463,0.2-1.938,0.602c-0.475,0.401-0.711,0.952-0.711,1.653c0,1.225,1.1,2.604,3.304,4.136
		c1.315,0.905,2.646,2.178,3.995,3.818C32.325,27.582,33,29.482,33,31.643c0,2.522-0.884,4.613-2.647,6.271
		c-1.768,1.656-4.008,2.484-6.721,2.484C21.778,40.397,19.94,39.96,18.117,39.084z"/>
</g>
<g>
	<path d="M1.59,50c-0.444,0-0.873-0.487-1.189-1.397c-0.314-0.89-0.492-2.113-0.492-3.389L-0.09,4.797C-0.09,2.149,0.661,0,1.592,0
		h46.82c0.447,0,0.87,0.506,1.189,1.397c0.313,0.909,0.49,2.124,0.49,3.39v40.427c0,2.639-0.754,4.786-1.68,4.786H1.59z
		 M3.271,9.591v30.837l43.457-0.018l0.006-30.828L3.271,9.591z"/>
</g>
</svg>
